PathFileType	4	(X/Y/Z)	C:\Users\Basilio\Documents\Thesis Gigler\squatting_fais\c3dfiles\041\SJ_pre1\markers_experimental.trc
DataRate	CameraRate	NumFrames	NumMarkers	Units	OrigDataRate	OrigDataStartFrame	OrigNumFrames
200.000000	200.000000	4	62	mm	200.000000	793	1270
Frame#	Time	FHD			LBHD			RBHD			C7			T10			CLAV			LSHO			LUUPA			LMUPA			LDUPA			LLEP			LMEP			LRAD			LUL			LRFIN			RSHO			RUPA1			RMUPA			RDUPA			RLEP			RMEP			RRAD			RUL			RUFIN			LASI			RASI			USACR			LSACR			RSACR			LTHI1			LTHI2			LTHI3			LTHI4			LLFC			LMFC			LTIB1			LTIB2			LTIB3			LTIB4			LLMAL			LMMAL			LHEE			LMT1			LMT2			LMT5			RTHI			RTHI2			RTHI3			RTHI4			RLFC			RMFC			RTIB1			RTIB2			RTIB3			RTIB4			RLMAL			RMMAL			RHEE			RMT1			RMT2			RMT5			*61			
		X1	Y1	Z1	X2	Y2	Z2	X3	Y3	Z3	X4	Y4	Z4	X5	Y5	Z5	X6	Y6	Z6	X7	Y7	Z7	X8	Y8	Z8	X9	Y9	Z9	X10	Y10	Z10	X11	Y11	Z11	X12	Y12	Z12	X13	Y13	Z13	X14	Y14	Z14	X15	Y15	Z15	X16	Y16	Z16	X17	Y17	Z17	X18	Y18	Z18	X19	Y19	Z19	X20	Y20	Z20	X21	Y21	Z21	X22	Y22	Z22	X23	Y23	Z23	X24	Y24	Z24	X25	Y25	Z25	X26	Y26	Z26	X27	Y27	Z27	X28	Y28	Z28	X29	Y29	Z29	X30	Y30	Z30	X31	Y31	Z31	X32	Y32	Z32	X33	Y33	Z33	X34	Y34	Z34	X35	Y35	Z35	X36	Y36	Z36	X37	Y37	Z37	X38	Y38	Z38	X39	Y39	Z39	X40	Y40	Z40	X41	Y41	Z41	X42	Y42	Z42	X43	Y43	Z43	X44	Y44	Z44	X45	Y45	Z45	X46	Y46	Z46	X47	Y47	Z47	X48	Y48	Z48	X49	Y49	Z49	X50	Y50	Z50	X51	Y51	Z51	X52	Y52	Z52	X53	Y53	Z53	X54	Y54	Z54	X55	Y55	Z55	X56	Y56	Z56	X57	Y57	Z57	X58	Y58	Z58	X59	Y59	Z59	X60	Y60	Z60	X61	Y61	Z61	X62	Y62	Z62	

794	3.965	-10.06959915161133	1448.062255859375	-874.063903808594	-167.2862396240235	1347.6748046875	-957.9314575195315	-153.9761810302735	1350.4814453125	-804.8160400390627	-200.8225555419922	1261.34130859375	-890.854187011719	-383.5251464843751	1009.938598632813	-897.3549804687502	-83.05718994140626	1147.905639648438	-891.6787109375002	-98.51238250732425	1210.155639648438	-1055.119995117188	-186.5121612548828	1103.82666015625	-1209.673828125	-200.1693420410157	1057.176391601563	-1203.094116210938	-227.2119140625001	1069.4658203125	-1254.626098632813	-260.3425903320313	1036.541870117188	-1282.916870117188	-341.5752868652344	1052.9287109375	-1241.418090820313	-363.3346862792969	867.0625610351565	-1102.159057617188	-364.6940307617188	812.5833129882815	-1155.6455078125	-331.0891113281251	829.3037719726565	-1060.737060546875	-90.6215286254883	1192.301391601563	-724.5599975585939	-183.5314178466797	1077.65771484375	-556.7324218750001	-175.8460235595703	1031.357666015625	-578.6298828125001	-205.2606658935547	1014.446533203125	-531.2192382812501	-231.7906188964844	972.494079589844	-517.5549926757814	-314.5424194335938	1013.335388183594	-540.2554321289064	-398.8817443847657	856.943298339844	-679.2330932617189	-357.7509155273438	840.8735351562502	-722.9439086914064	-382.6029052734376	790.4182739257815	-639.7604370117189	-318.8937683105469	771.2273559570315	-991.3594970703127	-328.5012512207032	775.0820312500002	-791.7524414062502	-459.7338256835939	921.755310058594	-903.4825439453127	-485.5931091308595	905.5128173828127	-932.4615478515627	-492.9636535644532	905.3852539062502	-877.9830322265627	-388.3610839843751	643.4605102539064	-1102.969970703125	-307.6989746093751	615.2451171875001	-1113.32275390625	-274.3703308105469	645.6050415039064	-1103.904296875	-291.1672058105469	555.1223754882814	-1114.775146484375	-167.9989624023438	446.0330505371095	-1126.356811523438	-150.4646911621094	413.072235107422	-1020.590270996094	-207.0480499267579	259.5563049316407	-1097.718017578125	-277.0474548339844	254.4408721923829	-1155.341430664063	-242.0035858154297	230.5572509765626	-1137.095581054688	-279.9351501464844	159.6563568115235	-1111.729248046875	-384.1743469238282	104.3695144653321	-1155.522094726563	-336.1891479492188	98.53346252441409	-1076.311401367188	-446.6770629882814	58.00061035156251	-1115.880126953125	-229.5332489013672	56.88744735717775	-1122.41455078125	-229.4290161132813	57.3164749145508	-1167.63134765625	-279.1997070312501	36.38006973266602	-1217.171630859375	-348.8539123535157	609.2264404296876	-692.6612548828126	-282.9779663085938	597.0759277343751	-686.0441284179689	-259.1383972167969	618.2267456054689	-692.2045288085939	-249.5822296142579	517.9149780273439	-692.2608032226564	-179.3631134033203	438.2935485839845	-683.5332641601564	-159.4204711914063	412.1321716308595	-792.5058593750002	-202.271224975586	276.8664550781251	-682.7822265625001	-313.5966796875001	246.492172241211	-667.0060424804689	-272.1809997558594	225.6959838867188	-669.1821289062501	-274.1588439941407	171.6298065185547	-694.2489013671876	-379.2754821777344	94.12436676025392	-674.1920166015626	-345.1316833496094	97.62904357910159	-754.8454589843751	-443.5625610351564	51.5072593688965	-722.5567016601564	-224.9359130859376	50.56332778930665	-711.3084716796876	-227.7846984863282	55.04967498779298	-660.1140747070314	-275.6431274414063	36.87481307983399	-613.3155517578126	-4217.242187500001	853.2639160156252	-3944.594726562501	
795	3.97	-15.15342617034912	1459.000854492188	-874.3655395507815	-170.7880401611328	1356.231567382813	-958.085876464844	-157.3655090332032	1359.439697265625	-804.939392089844	-203.0059814453126	1269.943481445313	-890.802673339844	-383.0657958984376	1016.021301269531	-897.2174072265627	-84.02465820312501	1157.884155273438	-891.6202392578127	-99.76208496093753	1220.782592773438	-1054.490844726563	-186.1797485351563	1112.899536132813	-1208.64453125	-199.6509704589844	1066.160400390625	-1201.98828125	-226.3560943603516	1078.055297851563	-1253.696655273438	-259.0731811523438	1045.050903320313	-1282.232177734375	-341.1108398437501	1061.02734375	-1240.81591796875	-359.7285461425782	874.2280273437502	-1101.563232421875	-360.7767944335938	819.813659667969	-1155.141357421875	-327.9331970214844	836.7706298828127	-1059.81298828125	-91.34682464599611	1203.411743164063	-725.5008544921876	-183.7559661865235	1088.23095703125	-557.5319213867189	-176.1112670898438	1041.635375976563	-579.3340454101564	-205.3978576660157	1025.145385742188	-531.7996215820314	-231.2589263916016	982.4390258789065	-517.7499389648439	-314.4108581542969	1022.291076660156	-541.1832885742189	-395.2282104492189	863.4873046875002	-679.7212524414064	-355.0061035156251	847.015075683594	-724.1334228515626	-378.6712951660157	797.8322753906252	-639.7410278320314	-316.6722106933594	777.836853027344	-990.731872558594	-325.6474304199219	781.4714965820315	-792.1374511718752	-457.760711669922	927.1760253906252	-903.2388916015627	-483.1119384765626	910.632751464844	-932.1231079101565	-490.7063293457032	910.866149902344	-877.5373535156252	-386.5690307617189	647.8054199218751	-1102.798706054688	-306.3268737792969	618.3815307617189	-1113.119262695313	-272.9201965332032	648.4590454101564	-1103.926025390625	-290.6968383789063	558.3310546875001	-1114.235595703125	-168.7601928710938	447.0393676757814	-1126.131713867188	-150.8261260986328	413.9232482910157	-1020.025390625	-207.3806304931641	260.2492675781251	-1097.7216796875	-276.8851928710938	254.329086303711	-1155.353759765625	-242.2052001953126	231.1929016113282	-1137.078857421875	-279.9631042480469	159.9257965087891	-1111.775024414063	-384.1531677246095	104.8013610839844	-1155.57666015625	-336.0611572265626	98.64410400390628	-1076.421264648438	-446.6069335937501	58.1753273010254	-1115.84423828125	-229.5653839111329	56.8237762451172	-1122.518432617188	-229.3444976806641	57.27418518066408	-1167.8037109375	-279.0941162109376	36.2043800354004	-1217.20361328125	-347.5228271484376	612.2981567382814	-692.9292602539064	-282.0645446777344	599.6256713867189	-686.0491333007814	-257.6893310546876	620.2503662109376	-692.3534545898439	-249.2592468261719	519.7478027343751	-692.9090576171876	-179.9672546386719	439.085906982422	-683.7916870117189	-160.0994415283203	412.8034667968751	-792.8604125976565	-202.4151458740235	277.5706481933594	-682.9698486328126	-313.7357788085938	246.6976776123047	-667.1358032226564	-272.3451843261719	226.032699584961	-669.2579956054689	-274.1293640136719	171.9373779296875	-694.3415527343751	-379.1528015136719	94.21338653564455	-674.0726318359376	-345.0170593261719	97.69597625732425	-754.7951049804689	-443.2366333007814	51.4664649963379	-722.3893432617189	-224.8419799804688	50.48588180541994	-711.1985473632814	-227.6484527587891	55.56380462646486	-659.7670288085939	-275.6034240722657	36.82929992675782	-613.2782592773439	-4217.432617187501	853.239685058594	-3944.711669921876	
796	3.975	-19.42296028137207	1469.7412109375	-874.4529418945315	-174.3208618164063	1365.093139648438	-958.2149047851565	-160.975570678711	1368.827880859375	-805.0343017578127	-205.5184631347657	1278.87646484375	-890.744567871094	-382.5539550781251	1022.3037109375	-897.0288696289065	-85.09506225585939	1168.184204101563	-891.4475097656252	-100.6879501342774	1231.597900390625	-1053.493286132813	-185.9556121826172	1122.459838867188	-1207.552124023438	-199.3246765136719	1075.654296875	-1200.802490234375	-225.5516510009766	1087.464111328125	-1252.8056640625	-257.6325073242188	1053.78564453125	-1281.48095703125	-340.0316772460938	1068.849243164063	-1240.317016601563	-356.1237792968751	881.9085083007815	-1100.928344726563	-356.5204467773438	827.5361328125002	-1154.722045898438	-324.3888549804688	844.6550292968752	-1058.818481445313	-92.22566223144533	1214.952026367188	-726.1797485351564	-184.2848205566407	1099.206420898438	-558.2885131835939	-176.3192596435547	1052.805786132813	-580.0950317382814	-205.228500366211	1035.951782226563	-532.6601562500001	-230.4449768066407	993.0267333984377	-518.1506958007814	-314.2666931152344	1031.76123046875	-542.1716918945314	-391.8411865234376	870.7732543945315	-680.8018188476564	-351.5048828125001	853.7285766601565	-725.2223510742189	-374.4267883300782	805.5906982421877	-639.8582153320314	-313.8821411132813	784.6016235351565	-990.0567016601565	-322.3783569335938	787.6542968750002	-792.6428833007815	-455.6627197265626	932.7796020507815	-903.2250976562502	-481.0809936523439	916.2774658203127	-932.0491333007815	-489.0411071777345	916.4547119140627	-877.5877685546877	-384.9074707031251	652.1377563476564	-1102.433959960938	-305.1635131835938	621.7777099609376	-1113.083740234375	-271.1517944335938	651.1420898437501	-1103.9443359375	-290.2136230468751	561.3229980468751	-1113.88916015625	-169.7502136230469	448.0033264160157	-1125.928833007813	-151.8394622802735	414.8023681640626	-1019.617797851563	-207.8006439208985	261.1113891601563	-1097.885131835938	-277.1079101562501	254.6216125488282	-1155.12744140625	-241.9028472900391	230.9766998291016	-1137.15234375	-279.9400329589844	160.4069213867188	-1111.959106445313	-383.9452209472657	104.6673889160157	-1155.90869140625	-335.9856872558594	98.96124267578128	-1076.5166015625	-446.495819091797	58.37871170043947	-1115.931762695313	-229.5928955078126	56.78873825073244	-1122.65478515625	-229.3296203613282	57.18005371093751	-1167.916259765625	-279.0534667968751	36.05928802490235	-1217.282104492188	-346.1776123046876	615.5631103515626	-693.0686645507814	-280.4609985351563	601.9666137695314	-686.2045898437501	-256.3582153320313	622.3143920898439	-692.0545654296876	-249.1353912353516	521.7276611328126	-693.2889404296876	-180.8320770263672	440.001190185547	-683.9605102539064	-161.0308990478516	413.7738647460939	-793.073181152344	-202.5156707763672	278.2729187011719	-682.9149780273439	-313.8621826171876	246.8084259033204	-667.5400390625001	-272.6318664550782	226.4166259765626	-669.1471557617189	-274.0979003906251	172.1558990478516	-694.2996826171876	-379.0090942382813	94.22466278076173	-673.8732299804689	-344.9765930175782	97.83509063720706	-754.6785888671876	-443.095184326172	51.60332489013673	-722.4061279296876	-224.7364196777344	50.44469451904298	-711.1149902343751	-227.6533660888672	54.96279525756837	-660.0155029296876	-275.6067199707032	36.81237792968751	-613.2510375976564	-4217.005371093751	853.1817626953127	-3944.754882812501	
797	3.98	-23.42378044128418	1480.249755859375	-874.8392333984377	-177.4814758300782	1374.194946289063	-958.275085449219	-164.5953063964844	1378.71630859375	-805.2564086914065	-208.5472106933594	1287.897338867188	-890.6879882812502	-381.9198303222657	1028.905639648438	-896.7780761718752	-85.90982055664064	1179.224609375	-891.367370605469	-101.73828125	1242.785278320313	-1052.586791992188	-185.8881072998047	1132.93359375	-1206.8681640625	-198.4940490722657	1085.816772460938	-1200.0830078125	-224.7029571533204	1097.290283203125	-1252.259033203125	-256.7536315917969	1063.760498046875	-1281.376586914063	-339.2119140625001	1077.446533203125	-1240.011840820313	-352.5097045898438	890.0764160156252	-1100.405151367188	-352.1847534179688	835.9656372070315	-1154.314331054688	-320.7924804687501	853.0684814453127	-1058.0322265625	-93.45468139648439	1226.93994140625	-726.9509887695314	-184.6847229003907	1110.761108398438	-559.2493896484376	-176.1337432861328	1064.25048828125	-580.6887817382814	-205.0813293457032	1047.355834960938	-533.1494750976564	-229.7121887207032	1004.447998046875	-518.4539794921876	-314.0188598632813	1041.840209960938	-542.8455810546876	-387.8565979003907	878.482360839844	-681.2741088867189	-348.7033996582032	861.0465087890627	-726.3754272460939	-370.3500671386719	813.8616943359377	-639.5343627929689	-311.1835327148438	791.9150390625002	-989.4949340820315	-321.3687744140626	794.0252075195315	-793.8442993164065	-453.6878662109376	938.614685058594	-902.7329101562502	-479.2799072265626	922.3359985351565	-931.7478027343752	-487.009002685547	922.0428466796877	-877.5254516601565	-383.3297424316407	656.8305664062501	-1102.216796875	-304.1677856445313	625.2558593750001	-1113.041625976563	-269.7951660156251	654.0369873046876	-1103.841796875	-289.9279785156251	564.2749023437501	-1113.420288085938	-171.042465209961	449.353729248047	-1125.677124023438	-152.9499969482422	416.0700683593751	-1019.409729003906	-208.2212677001954	261.8760375976563	-1097.927490234375	-277.4744567871094	255.0336456298829	-1155.199096679688	-242.2555847167969	231.6254272460938	-1137.286010742188	-279.9868164062501	161.095199584961	-1112.276733398438	-383.7853393554688	104.8189315795899	-1156.11669921875	-335.9598999023438	99.12634277343753	-1076.61474609375	-446.513153076172	58.62929534912111	-1115.937377929688	-229.5298156738282	56.82604980468751	-1122.77490234375	-229.2911987304688	57.13364028930665	-1168.053955078125	-279.0262756347657	35.96630477905274	-1217.375732421875	-344.6111450195313	619.0983276367189	-693.1583251953126	-279.5640258789063	604.6630249023439	-686.0646972656251	-254.9313354492188	624.7529296875001	-692.0576171875001	-249.0210266113282	523.7997436523439	-693.8781738281251	-181.9786682128907	441.3132629394532	-684.1920776367189	-162.061752319336	414.7410888671876	-793.2525024414065	-202.9779815673829	278.9290771484376	-682.9020996093751	-314.2258911132813	247.1331329345704	-667.5426025390626	-273.1057434082032	227.0170593261719	-668.9989624023439	-274.1209716796876	172.6256103515625	-694.2791748046876	-378.8897094726563	94.3134002685547	-673.7390747070314	-344.9886779785157	98.00612640380862	-754.6132812500001	-443.0512695312501	51.82382965087892	-722.3477172851564	-224.6062927246094	50.39905548095705	-710.9805908203126	-227.5171356201172	55.24168777465822	-659.8057861328126	-275.5871582031251	36.71332931518555	-613.1627197265626	-4216.769531250001	853.1076660156252	-3944.683349609376	
